<?xml version="1.0" encoding="UTF-8"?>
<!DOCTYPE svg  PUBLIC '-//W3C//DTD SVG 1.1//EN'  'http://www.w3.org/Graphics/SVG/1.1/DTD/svg11.dtd'>
<svg enable-background="new 0 0 442.003 442.003" version="1.1" viewBox="0 0 442.003 442.003" xml:space="preserve" xmlns="http://www.w3.org/2000/svg">
	<path d="m337.9 189.48c-0.01-0.082-0.016-0.165-0.028-0.246-0.058-0.404-0.135-0.807-0.244-1.205-1e-3 -4e-3 -3e-3 -8e-3 -4e-3 -0.013-0.102-0.372-0.232-0.739-0.379-1.102-0.042-0.104-0.088-0.204-0.133-0.306-0.116-0.262-0.245-0.52-0.385-0.774-0.061-0.111-0.12-0.222-0.186-0.331-0.035-0.059-0.063-0.12-0.1-0.179-0.148-0.235-0.31-0.456-0.474-0.675-0.031-0.041-0.056-0.084-0.087-0.124-0.25-0.324-0.52-0.625-0.803-0.91-0.053-0.054-0.111-0.104-0.166-0.156-0.246-0.237-0.501-0.459-0.767-0.668-0.068-0.053-0.134-0.106-0.204-0.157-0.356-0.264-0.723-0.51-1.106-0.723l-147.32-83.743 84.825-53.414 142.21 80.832-59.891 37.713c-4.674 2.942-6.077 9.117-3.134 13.79 2.942 4.674 9.116 6.077 13.79 3.134l74.026-46.613c2.976-1.873 4.749-5.172 4.669-8.688-0.079-3.516-1.998-6.73-5.056-8.468l-161.93-92.046c-3.203-1.822-7.15-1.732-10.27 0.231l-103.96 65.461c-0.021 0.013-0.043 0.027-0.064 0.04l-51.947 32.711c-0.024 0.015-0.048 0.03-0.071 0.045l-104.03 65.506c-2.976 1.873-4.749 5.172-4.669 8.688 0.079 3.516 1.998 6.73 5.056 8.468l161.93 92.046c1.534 0.873 3.238 1.307 4.941 1.307 1.853 0 3.703-0.515 5.328-1.538l74.026-46.614c4.674-2.942 6.077-9.117 3.134-13.79-2.941-4.674-9.117-6.078-13.79-3.134l-68.961 43.424-142.21-80.834 84.826-53.415 151.67 86.212v114.18c0 3.642 1.979 6.995 5.167 8.755 1.507 0.832 3.171 1.245 4.833 1.245 1.854 0 3.704-0.515 5.328-1.538l52.014-32.753c2.908-1.831 4.672-5.026 4.672-8.462v-120c0-0.059-0.01-0.115-0.012-0.174-6e-3 -0.332-0.028-0.664-0.067-0.997zm-51.935 135.81v-101.89c0-3.597-1.932-6.916-5.059-8.693l-147.41-83.791 32.813-20.663 142.21 80.833-12.451 7.84c-4.674 2.942-6.077 9.117-3.134 13.79 1.9 3.02 5.149 4.673 8.472 4.673 1.82 0 3.664-0.497 5.318-1.539l11.259-7.089v96.366l-32.013 20.159z"/>
	<path d="m426.67 156.68l-74.026 46.613c-4.674 2.942-6.077 9.117-3.134 13.79 1.9 3.02 5.149 4.673 8.472 4.673 1.82 0 3.664-0.497 5.318-1.539l74.026-46.613c4.674-2.942 6.077-9.117 3.134-13.79-2.942-4.674-9.117-6.078-13.79-3.134z"/>
	<path d="m240.63 273.83l-68.961 43.424-156.73-89.087c-4.798-2.728-10.906-1.052-13.635 3.752-2.729 4.801-1.05 10.906 3.752 13.635l161.93 92.046c1.534 0.873 3.238 1.307 4.941 1.307 1.853 0 3.703-0.515 5.328-1.538l74.026-46.614c4.674-2.942 6.077-9.117 3.134-13.79-2.941-4.675-9.117-6.079-13.79-3.135z"/>
	<path d="m426.67 196.68l-74.026 46.613c-4.674 2.942-6.077 9.117-3.134 13.79 1.9 3.02 5.149 4.673 8.472 4.673 1.82 0 3.664-0.497 5.318-1.539l74.026-46.613c4.674-2.942 6.077-9.117 3.134-13.79-2.942-4.675-9.117-6.078-13.79-3.134z"/>
	<path d="m240.63 313.83l-68.961 43.424-156.73-89.087c-4.798-2.728-10.906-1.052-13.635 3.752-2.729 4.801-1.05 10.906 3.752 13.635l161.93 92.046c1.534 0.873 3.238 1.307 4.941 1.307 1.853 0 3.703-0.515 5.328-1.538l74.026-46.614c4.674-2.942 6.077-9.117 3.134-13.79-2.941-4.676-9.117-6.079-13.79-3.135z"/>
	<path d="m426.67 236.68l-74.026 46.613c-4.674 2.942-6.077 9.117-3.134 13.79 1.9 3.02 5.149 4.673 8.472 4.673 1.82 0 3.664-0.497 5.318-1.539l74.026-46.613c4.674-2.942 6.077-9.117 3.134-13.79-2.942-4.674-9.117-6.077-13.79-3.134z"/>
	<path d="m240.63 353.83l-68.961 43.424-156.73-89.087c-4.798-2.728-10.906-1.052-13.635 3.752-2.729 4.801-1.05 10.906 3.752 13.635l161.93 92.046c1.534 0.873 3.238 1.307 4.941 1.307 1.853 0 3.703-0.515 5.328-1.538l74.026-46.614c4.674-2.942 6.077-9.117 3.134-13.79-2.941-4.675-9.117-6.079-13.79-3.135z"/>
</svg>
