<?xml version="1.0" encoding="UTF-8"?>
<svg viewBox="0 0 64 64" xmlns="http://www.w3.org/2000/svg">
<path d="m49 10h-1v-3a1 1 0 0 0 -1-1h-16v-1a1 1 0 0 0 -.8-.98l-10-2a1 1 0 0 0 -1.2.98v3h-2a1 1 0 0 0 -1 1v3h-1a1 1 0 0 0 -1 1v4a1 1 0 0 0 1 1h2.043l1.957 45.043a1 1 0 0 0 1 .957h24a1 1 0 0 0 1-.957l1.957-45.043h2.043a1 1 0 0 0 1-1v-4a1 1 0 0 0 -1-1zm-28-5.78 8 1.6v.18h-8zm-3 3.78h28v2h-28zm25.042 52h-22.084l-.087-2h22.258zm.174-4h-22.432l-.348-8h23.128zm.435-10h-23.3l-1.133-26h25.564zm1.218-28h-25.738l-.087-2h25.912zm3.131-4h-32v-2h32z"/>
<path d="m24 54h5v-2h-4v-2h-2v3a1 1 0 0 0 1 1z"/>
<path d="m31 52h2v2h-2z"/>
<path d="m34 40.706a.993.993 0 0 0 .285-.042 8 8 0 0 0 0-15.328 1 1 0 0 0 -1.285.958v13.412a1 1 0 0 0 1 1zm1-12.9a5.991 5.991 0 0 1 0 10.382z"/>
<path d="m29.715 40.664a1 1 0 0 0 1.285-.958v-13.412a1 1 0 0 0 -1.285-.958 8 8 0 0 0 0 15.328zm-.715-12.855v10.382a5.991 5.991 0 0 1 0-10.382z"/>
<path d="m40 22h2v2h-2z"/>
</svg>
