<?xml version="1.0" encoding="UTF-8"?>
<svg viewBox="0 -1 511.99871 511" xmlns="http://www.w3.org/2000/svg">
<path d="m380.59 204.04 30.082-1.9062c0.050781-0.003906 0.10547-0.007812 0.16016-0.011718 21.438-1.8086 40.68-13.039 52.797-30.82l23.781-34.891c20.699-30.375 28.719-67.062 22.574-103.3-1.207-7.1172-4.8477-13.676-10.246-18.461-5.4023-4.7891-12.348-7.6172-19.559-7.9609-36.727-1.7578-72.176 10.605-99.848 34.797l-31.789 27.793c-16.199 14.16-25.043 34.609-24.27 56.113 0.003906 0.050781 0.003906 0.10547 0.007812 0.16016l1.7148 30.09c0.66797 11.73-3.6328 23.305-11.777 31.734l-248.35 255.13c-6.6484 6.9336-10.082 16.445-9.6641 26.785 0.46094 11.383 5.6836 22.562 13.973 29.91 7.4883 6.6367 17.781 10.418 28.07 10.418 1.1016 0 2.2031-0.042969 3.3008-0.13281 10.316-0.82422 19.352-5.3711 25.469-12.848l223.46-277.09c7.4102-9.1172 18.387-14.773 30.109-15.516zm-42.039 5.8594-223.45 277.06c-3.4141 4.1719-8.6641 6.7422-14.781 7.2305-7.2773 0.58203-14.738-1.8398-19.965-6.4727-5.2266-4.6367-8.5234-11.754-8.8164-19.047-0.25-6.1289 1.668-11.648 5.3633-15.5l248.33-255.11c11.133-11.52 16.992-27.297 16.086-43.289l-1.7148-30.012c-0.58203-16.832 6.3516-32.836 19.035-43.926l31.789-27.793c24.672-21.566 56.289-32.578 89.016-31.023 3.7266 0.17969 7.3125 1.6406 10.105 4.1172 2.793 2.4727 4.6719 5.8633 5.2969 9.5391 5.4766 32.309-1.6719 65.012-20.125 92.09l-23.781 34.895c-9.4883 13.922-24.547 22.723-41.328 24.164l-30 1.8984c-15.984 1.0156-30.945 8.7266-41.066 21.18z"/>
<path d="m497.82 440.57-166.52-151.67c-3.1328-2.8555-7.9844-2.6289-10.844 0.50391-2.8516 3.1328-2.625 7.9883 0.50781 10.844l166.48 151.63c3.9609 3.6602 6.207 9.0547 6.3281 15.188 0.14453 7.2969-2.7188 14.598-7.6602 19.539-4.9375 4.9375-12.227 7.8086-19.539 7.6602-6.1328-0.12109-11.527-2.3672-15.148-6.2852l-148.38-162.91c-2.8555-3.1367-7.7109-3.3594-10.844-0.50781-3.1328 2.8555-3.3594 7.7109-0.50391 10.844l148.42 162.95c6.5234 7.0547 15.812 11.055 26.16 11.258 0.26953 0.003906 0.53516 0.007812 0.80469 0.007812 11.121 0 22.242-4.5117 29.887-12.16 7.8359-7.8359 12.379-19.309 12.152-30.695-0.20312-10.348-4.1992-19.637-11.293-26.199z"/>
<path d="m92.609 202.59c12.703 11.703 29.207 18.375 46.473 18.789 0.054688 0.003906 0.10938 0.003906 0.16016 0.003906l30.141 0.09375c11.75 0.035156 23.043 5.0234 30.969 13.66l13.277 14.574c1.5156 1.6641 3.5898 2.5078 5.6758 2.5078 1.8438 0 3.6953-0.66016 5.1641-2 3.1367-2.8555 3.3633-7.7109 0.50781-10.844l-13.297-14.594c-10.828-11.805-26.227-18.602-42.246-18.656l-30.059-0.09375c-13.355-0.33984-26.125-5.4531-36.02-14.41l-87.348-103.84c-0.89062-1.0625-0.82422-2.6016 0.15625-3.582 0.67188-0.67578 1.4609-0.77344 1.8711-0.77344s1.1992 0.097657 1.875 0.77344l79.508 79.512c7.8594 7.8594 20.648 7.8594 28.508-0.003907l9.3438-9.3398v-0.003907l16.59-16.59s0.003906 0 0.003906-0.003907l0.003907-0.003906 9.3398-9.3398c7.8594-7.8594 7.8594-20.648 0-28.508l-79.508-79.508c-1.0312-1.0312-1.0312-2.7148 0-3.7461 0.98047-0.98047 2.5195-1.0469 3.582-0.15625l103.84 87.352c8.9609 9.8906 14.074 22.664 14.414 36.016l0.089844 30.062c0.054687 16.016 6.8555 31.414 18.676 42.266l14.227 12.957c3.1367 2.8555 7.9883 2.6289 10.844-0.50391 2.8516-3.1367 2.625-7.9883-0.50781-10.844l-14.203-12.938c-8.6602-7.9453-13.645-19.242-13.684-30.988l-0.09375-30.141c0-0.054688 0-0.10938-0.003906-0.16406-0.41406-17.266-7.0859-33.77-18.789-46.473-0.21875-0.23828-0.45313-0.46484-0.70313-0.67578l-104.22-87.672c-7.2031-6.0625-17.656-5.6094-24.312 1.0469-7.0195 7.0195-7.0195 18.438 0 25.453l79.508 79.512c1.875 1.875 1.875 4.9258 0 6.8008l-3.918 3.9141-88.613-88.609c-2.9961-3-7.8555-3-10.852 0-2.9961 2.9961-2.9961 7.8555 0 10.852l88.613 88.613-5.7422 5.7383-88.613-88.609c-2.9961-2.9961-7.8555-2.9961-10.852 0-3 2.9961-3 7.8555 0 10.852l88.609 88.613-3.9141 3.918c-1.875 1.875-4.9258 1.875-6.8008 0l-79.512-79.508c-3.3984-3.3984-7.918-5.2734-12.727-5.2734s-9.3281 1.875-12.727 5.2734c-6.6562 6.6562-7.1055 17.109-1.0469 24.316l87.676 104.22c0.20703 0.25 0.43359 0.48438 0.67188 0.70313z"/>
</svg>
