<?xml version="1.0" encoding="UTF-8"?>
<svg enable-background="new 0 0 512 512" version="1.1" viewBox="0 0 512 512" xml:space="preserve" xmlns="http://www.w3.org/2000/svg">
			<path d="m441.97 252.99c-5.551-0.227-10.201 4.116-10.409 9.656-0.053 1.434-0.125 2.863-0.212 4.288-0.342 5.534 3.867 10.297 9.401 10.64 0.211 0.014 0.421 0.02 0.628 0.02 5.262 0 9.682-4.097 10.011-9.42 0.098-1.586 0.177-3.178 0.237-4.775 0.208-5.54-4.115-10.201-9.656-10.409z"/>
			<path d="m496.66 168.36c1.545-2.975 1.539-6.602-0.198-9.626-1.239-2.157-3.189-3.708-5.42-4.481-12.655-29.217-30.833-56.081-54.025-79.273-48.351-48.351-112.64-74.979-181.02-74.979s-132.67 26.628-181.02 74.981-74.981 112.64-74.981 181.02c0 36.387 7.571 71.602 21.914 103.89-4.983 5.535-7.711 12.619-7.711 20.124 0 8.045 3.133 15.608 8.821 21.296 5.872 5.872 13.584 8.806 21.296 8.806 2.238 0 4.474-0.255 6.668-0.75 7.273 9.69 15.274 18.937 23.993 27.656 12.403 12.403 25.872 23.35 40.174 32.81-3.494 10.487-1.08 22.526 7.252 30.86 5.872 5.872 13.584 8.806 21.296 8.806s15.425-2.935 21.296-8.806l3.856-3.856c27.573 9.961 56.957 15.168 87.145 15.168 68.38 0 132.67-26.628 181.02-74.981s74.981-112.64 74.981-181.02c0-30.369-5.264-59.925-15.339-87.641zm-476.58 87.641c0-130.09 105.83-235.92 235.92-235.92 15.249 0 30.153 1.485 44.601 4.267l-35.103 35.102c-3.927 0.345-7.569 0.788-9.498 0.788-107.94 0-195.76 87.82-195.76 195.76 0 19.827 2.976 38.969 8.483 57.019l-31.413 31.413c-11.093-27.326-17.227-57.173-17.227-88.432zm200.55-120.84l0.275 4.439c0.788 12.711-3.925 25.165-12.93 34.17l-122.9 122.89c-3.107-13.056-4.761-26.668-4.761-40.662 0-92.917 72.51-169.2 163.92-175.28l-4.832 4.832c-13.073 13.073-19.915 31.156-18.772 49.61zm-183.4 251.95c-1.896-1.896-2.94-4.416-2.94-7.098s1.044-5.203 2.94-7.099l184.94-184.94c13.073-13.074 19.916-31.157 18.772-49.61l-0.275-4.439c-0.787-12.711 3.925-25.165 12.931-34.17l69.65-69.648c0.294-0.293 0.558-0.605 0.808-0.924l1.911 1.493c6.279 1.954 12.445 4.164 18.487 6.618l-71.312 71.313c-3.92 3.92-3.92 10.277 0 14.198 1.96 1.96 4.53 2.94 7.099 2.94s5.139-0.981 7.099-2.94l74.774-74.774c0.591-0.591 1.082-1.243 1.495-1.928 6.277 3.232 12.387 6.741 18.324 10.504l-5.62 5.621h-1e-3l-74.774 74.774c-3.92 3.92-3.92 10.277 0 14.198 1.96 1.96 4.53 2.94 7.099 2.94s5.139-0.981 7.099-2.94l82.941-82.942c30.728 23.407 55.557 54.168 71.846 89.64l-28.726 7.562c-48.958 12.888-93.757 38.622-129.55 74.419l-41.008 41.009c-8.024 8.024-12.148 19.118-11.315 30.435 0.405 5.49-1.596 10.871-5.488 14.764l-83.531 83.53c-23.762-13.215-44.152-31.765-59.539-54.042l139.21-139.21c9.005-9.006 21.461-13.707 34.172-12.932l4.438 0.274c18.453 1.151 36.536-5.699 49.61-18.772l80.12-80.12c3.92-3.92 3.92-10.277 0-14.198-3.92-3.919-10.277-3.919-14.198 0l-80.12 80.12c-9.004 9.006-21.456 13.712-34.172 12.932l-4.438-0.274c-18.448-1.152-36.536 5.699-49.61 18.772l-184.95 184.94c-3.913 3.915-10.282 3.913-14.198 0zm31.04 11.554l28.69-28.689c15.766 21.936 35.947 40.481 59.237 54.343l-29.132 29.132c-22.579-14.799-42.474-33.358-58.795-54.786zm82.542 87.828c-3.915 3.916-10.284 3.914-14.198 1e-3s-3.914-10.283 0-14.197l132.02-132.02c8.024-8.025 12.149-19.119 11.315-30.436-0.405-5.489 1.596-10.872 5.489-14.764l41.007-41.008c33.287-33.287 74.944-57.216 120.47-69.199l7.496-1.974-303.6 303.6zm105.2 5.432c-24.818 0-48.748-3.861-71.232-11.001l32.929-32.929c12.391 2.469 25.197 3.773 38.304 3.773 37.917 0 74.727-10.905 106.45-31.534 30.887-20.085 55.439-48.295 70.999-81.58 2.348-5.023 0.181-10.998-4.842-13.346-5.025-2.35-10.999-0.181-13.346 4.842-28.84 61.683-91.354 101.54-159.26 101.54-7.025 0-13.952-0.424-20.762-1.235l245.68-245.68c7.138 22.484 11.005 46.41 11.005 71.226 0 130.09-105.83 235.92-235.92 235.92z"/>
</svg>
